<?xml version="1.0" encoding="UTF-8" standalone="no"?>
<svg width="303px" height="300px" viewBox="0 0 303 300" version="1.1" xmlns="http://www.w3.org/2000/svg" xmlns:xlink="http://www.w3.org/1999/xlink" xmlns:sketch="http://www.bohemiancoding.com/sketch/ns">
    <!-- Generator: Sketch 3.2.2 (9983) - http://www.bohemiancoding.com/sketch -->
    <title>Rectangle 1</title>
    <desc>Created with Sketch.</desc>
    <defs></defs>
    <g id="Page-1" stroke="none" stroke-width="1" fill="none" fill-rule="evenodd" sketch:type="MSPage">
        <path d="M283.184263,158.582787 C283.954713,152.771282 284,149.147231 284,149.147231 C284,147.039723 283.950121,153.350611 283.851477,155.433731 C280.56756,224.782343 223.239423,280 153,280 C80.6506978,280 22,221.41522 22,149.147231 C22,144.936943 22.1990696,140.773098 22.5883198,136.664574 C22.7260859,135.210458 23.136759,134.676432 23.77972,134.858869 C29.8240575,127.985031 63.5458477,91.3474478 100.659959,85.3588296 C141.649148,78.7449408 160.436721,86.4766336 181.145823,103.082348 C201.854926,119.688062 212.571299,149.724205 212.571299,157.488167 C212.571299,165.252129 212.50798,171.877633 212.50798,171.877633 C212.50798,171.877633 197.838709,140.726268 168.438141,149.107217 C139.037573,157.488167 140.464183,213.778507 176.486082,227.092762 C212.50798,240.407017 238.670247,226.44351 248.023329,220.370449 C255.340977,215.619018 265.085375,206.449361 271.298839,197.076675 C277.119641,185.973754 280.274432,174.731255 281.983514,165.927719 C283.177056,156.326917 283.480528,148.651577 283.480528,148.651577 L283.184263,158.582787 Z M153,300 C235.842712,300 303,232.842712 303,150 C303,67.1572875 235.842712,0 153,0 C70.1572875,0 3,67.1572875 3,150 C3,232.842712 70.1572875,300 153,300 Z" id="wave" fill="#21B8D9" sketch:type="MSShapeGroup"></path>
    </g>
</svg>